<?xml version="1.0" standalone="no"?>
<!DOCTYPE svg PUBLIC "-//W3C//DTD SVG 1.0//EN" "http://www.w3.org/TR/2001/REC-SVG-20010904/DTD/svg10.dtd">
<svg xmlns="http://www.w3.org/2000/svg" xmlns:xlink="http://www.w3.org/1999/xlink" id="body_1" width="780" height="190">

<g transform="matrix(5 0 0 5 0 0)">
    <path d="M27.3068 10.8182L18.1534 37L9.97159 37L0.818182 10.8182L8.48864 10.8182L13.9261 29.5511L14.1989 29.5511L19.6193 10.8182L27.3068 10.8182zM36.7855 37.4943C 35.1151 37.4943 33.6264 37.2045 32.3196 36.625C 31.0128 36.0341 29.9787 35.1648 29.2173 34.017C 28.4673 32.858 28.0923 31.4148 28.0923 29.6875C 28.0923 28.233 28.3594 27.0114 28.8935 26.0227C 29.4276 25.0341 30.1548 24.2386 31.0753 23.6364C 31.9957 23.0341 33.0412 22.5795 34.2116 22.2727C 35.3935 21.9659 36.6321 21.75 37.9276 21.625C 39.4503 21.4659 40.6776 21.3182 41.6094 21.1818C 42.5412 21.0341 43.2173 20.8182 43.6378 20.5341C 44.0582 20.25 44.2685 19.8295 44.2685 19.2727L44.2685 19.2727L44.2685 19.1705C 44.2685 18.0909 43.9276 17.2557 43.2457 16.6648C 42.5753 16.0739 41.6207 15.7784 40.3821 15.7784C 39.0753 15.7784 38.0355 16.0682 37.2628 16.6477C 36.4901 17.2159 35.9787 17.9318 35.7287 18.7955L35.7287 18.7955L29.0128 18.25C 29.3537 16.6591 30.0241 15.2841 31.0241 14.125C 32.0241 12.9545 33.3139 12.0568 34.8935 11.4318C 36.4844 10.7955 38.3253 10.4773 40.4162 10.4773C 41.8707 10.4773 43.2628 10.6477 44.5923 10.9886C 45.9332 11.3295 47.1207 11.858 48.1548 12.5739C 49.2003 13.2898 50.0241 14.2102 50.6264 15.3352C 51.2287 16.4489 51.5298 17.7841 51.5298 19.3409L51.5298 19.3409L51.5298 37L44.6435 37L44.6435 33.3693L44.4389 33.3693C 44.0185 34.1875 43.456 34.9091 42.7514 35.5341C 42.0469 36.1477 41.2003 36.6307 40.2116 36.983C 39.223 37.3239 38.081 37.4943 36.7855 37.4943zM38.8651 32.483C 39.9332 32.483 40.8764 32.2727 41.6946 31.8523C 42.5128 31.4205 43.1548 30.8409 43.6207 30.1136C 44.0866 29.3864 44.3196 28.5625 44.3196 27.642L44.3196 27.642L44.3196 24.8636C 44.0923 25.0114 43.7798 25.1477 43.3821 25.2727C 42.9957 25.3864 42.5582 25.4943 42.0696 25.5966C 41.581 25.6875 41.0923 25.7727 40.6037 25.8523C 40.1151 25.9205 39.6719 25.983 39.2741 26.0398C 38.4219 26.1648 37.6776 26.3636 37.0412 26.6364C 36.4048 26.9091 35.9105 27.2784 35.5582 27.7443C 35.206 28.1989 35.0298 28.767 35.0298 29.4489C 35.0298 30.4375 35.3878 31.1932 36.1037 31.7159C 36.831 32.2273 37.7514 32.483 38.8651 32.483zM56.1634 37L56.1634 10.8182L63.2031 10.8182L63.2031 15.3864L63.4759 15.3864C 63.9531 13.7614 64.7543 12.5341 65.8793 11.7045C 67.0043 10.8636 68.2997 10.4432 69.7656 10.4432C 70.1293 10.4432 70.5213 10.4659 70.9418 10.5114C 71.3622 10.5568 71.7315 10.6193 72.0497 10.6989L72.0497 10.6989L72.0497 17.142C 71.7088 17.0398 71.2372 16.9489 70.6349 16.8693C 70.0327 16.7898 69.4815 16.75 68.9815 16.75C 67.9134 16.75 66.9588 16.983 66.1179 17.4489C 65.2884 17.9034 64.6293 18.5398 64.1406 19.358C 63.6634 20.1761 63.4247 21.1193 63.4247 22.1875L63.4247 22.1875L63.4247 37L56.1634 37zM74.804 37L74.804 10.8182L82.0653 10.8182L82.0653 37L74.804 37zM78.4517 7.44318C 77.3722 7.44318 76.446 7.08523 75.6733 6.36932C 74.9119 5.64204 74.5312 4.77273 74.5312 3.76136C 74.5312 2.76136 74.9119 1.90341 75.6733 1.1875C 76.446 0.460226 77.3722 0.0965891 78.4517 0.0965891C 79.5313 0.0965891 80.4517 0.460226 81.2131 1.1875C 81.9858 1.90341 82.3722 2.76136 82.3722 3.76136C 82.3722 4.77273 81.9858 5.64204 81.2131 6.36932C 80.4517 7.08523 79.5313 7.44318 78.4517 7.44318zM94.348 37.4943C 92.6776 37.4943 91.1889 37.2045 89.8821 36.625C 88.5753 36.0341 87.5412 35.1648 86.7798 34.017C 86.0298 32.858 85.6548 31.4148 85.6548 29.6875C 85.6548 28.233 85.9219 27.0114 86.456 26.0227C 86.9901 25.0341 87.7173 24.2386 88.6378 23.6364C 89.5582 23.0341 90.6037 22.5795 91.7741 22.2727C 92.956 21.9659 94.1946 21.75 95.4901 21.625C 97.0128 21.4659 98.2401 21.3182 99.1719 21.1818C 100.104 21.0341 100.78 20.8182 101.2 20.5341C 101.621 20.25 101.831 19.8295 101.831 19.2727L101.831 19.2727L101.831 19.1705C 101.831 18.0909 101.49 17.2557 100.808 16.6648C 100.138 16.0739 99.1832 15.7784 97.9446 15.7784C 96.6378 15.7784 95.598 16.0682 94.8253 16.6477C 94.0526 17.2159 93.5412 17.9318 93.2912 18.7955L93.2912 18.7955L86.5753 18.25C 86.9162 16.6591 87.5866 15.2841 88.5866 14.125C 89.5866 12.9545 90.8764 12.0568 92.456 11.4318C 94.0469 10.7955 95.8878 10.4773 97.9787 10.4773C 99.4332 10.4773 100.825 10.6477 102.155 10.9886C 103.496 11.3295 104.683 11.858 105.717 12.5739C 106.763 13.2898 107.587 14.2102 108.189 15.3352C 108.791 16.4489 109.092 17.7841 109.092 19.3409L109.092 19.3409L109.092 37L102.206 37L102.206 33.3693L102.001 33.3693C 101.581 34.1875 101.018 34.9091 100.314 35.5341C 99.6094 36.1477 98.7628 36.6307 97.7741 36.983C 96.7855 37.3239 95.6435 37.4943 94.348 37.4943zM96.4276 32.483C 97.4957 32.483 98.4389 32.2727 99.2571 31.8523C 100.075 31.4205 100.717 30.8409 101.183 30.1136C 101.649 29.3864 101.882 28.5625 101.882 27.642L101.882 27.642L101.882 24.8636C 101.655 25.0114 101.342 25.1477 100.945 25.2727C 100.558 25.3864 100.121 25.4943 99.6321 25.5966C 99.1435 25.6875 98.6548 25.7727 98.1662 25.8523C 97.6776 25.9205 97.2344 25.983 96.8366 26.0398C 95.9844 26.1648 95.2401 26.3636 94.6037 26.6364C 93.9673 26.9091 93.473 27.2784 93.1207 27.7443C 92.7685 28.1989 92.5923 28.767 92.5923 29.4489C 92.5923 30.4375 92.9503 31.1932 93.6662 31.7159C 94.3935 32.2273 95.3139 32.483 96.4276 32.483zM127.652 10.8182L127.652 16.2727L111.885 16.2727L111.885 10.8182L127.652 10.8182zM115.464 4.54545L122.726 4.54545L122.726 28.9545C 122.726 29.625 122.828 30.1477 123.033 30.5227C 123.237 30.8864 123.521 31.142 123.885 31.2898C 124.26 31.4375 124.692 31.5114 125.18 31.5114C 125.521 31.5114 125.862 31.483 126.203 31.4261C 126.544 31.358 126.805 31.3068 126.987 31.2727L126.987 31.2727L128.129 36.6761C 127.766 36.7898 127.254 36.9205 126.595 37.0682C 125.936 37.2273 125.135 37.3239 124.192 37.358C 122.442 37.4261 120.908 37.1932 119.589 36.6591C 118.283 36.125 117.266 35.2955 116.538 34.1705C 115.811 33.0455 115.453 31.625 115.464 29.9091L115.464 29.9091L115.464 4.54545zM143.033 37.5114C 140.339 37.5114 138.021 36.9659 136.078 35.875C 134.146 34.7727 132.658 33.2159 131.612 31.2045C 130.567 29.1818 130.044 26.7898 130.044 24.0284C 130.044 21.3352 130.567 18.9716 131.612 16.9375C 132.658 14.9034 134.129 13.3182 136.027 12.1818C 137.936 11.0455 140.175 10.4773 142.743 10.4773C 144.47 10.4773 146.078 10.7557 147.567 11.3125C 149.067 11.858 150.374 12.6818 151.487 13.7841C 152.612 14.8864 153.487 16.2727 154.112 17.9432C 154.737 19.6023 155.05 21.5455 155.05 23.7727L155.05 23.7727L155.05 25.767L132.942 25.767L132.942 21.267L148.214 21.267C 148.214 20.2216 147.987 19.2955 147.533 18.4886C 147.078 17.6818 146.447 17.0511 145.641 16.5966C 144.845 16.1307 143.919 15.8977 142.862 15.8977C 141.76 15.8977 140.783 16.1534 139.93 16.6648C 139.089 17.1648 138.43 17.8409 137.953 18.6932C 137.476 19.5341 137.232 20.4716 137.22 21.5057L137.22 21.5057L137.22 25.7841C 137.22 27.0795 137.459 28.1989 137.936 29.142C 138.425 30.0852 139.112 30.8125 139.999 31.3239C 140.885 31.8352 141.936 32.0909 143.152 32.0909C 143.959 32.0909 144.697 31.9773 145.368 31.75C 146.038 31.5227 146.612 31.1818 147.089 30.7273C 147.567 30.2727 147.93 29.7159 148.18 29.0568L148.18 29.0568L154.896 29.5C 154.555 31.1136 153.857 32.5227 152.8 33.7273C 151.754 34.9205 150.402 35.8523 148.743 36.5227C 147.095 37.1818 145.192 37.5114 143.033 37.5114z" stroke="none" fill="#2B2B2B" fill-rule="nonzero" />
</g>
</svg>